<?xml version="1.0" encoding="UTF-8" standalone="no"?>
<!-- Created with Inkscape (http://www.inkscape.org/) -->

<svg
   
   xmlns="http://www.w3.org/2000/svg"
   xmlns:sodipodi="http://sodipodi.sourceforge.net/DTD/sodipodi-0.dtd"
   xmlns:inkscape="http://www.inkscape.org/namespaces/inkscape"
   id="svg2"
   version="1.1"
   inkscape:version="0.91 r13725"
   width="500"
   height="497.61905"
   viewBox="0 0 500 497.61905"
   sodipodi:docname="30.svg">
  <metadata
     id="metadata8">
    <rdf:RDF>
      <cc:Work
         rdf:about="">
        <dc:format>image/svg+xml</dc:format>
        <dc:type
           rdf:resource="http://purl.org/dc/dcmitype/StillImage" />
        <dc:title></dc:title>
      </cc:Work>
    </rdf:RDF>
  </metadata>
  <defs
     id="defs6" />
  <sodipodi:namedview
     pagecolor="#ffffff"
     bordercolor="#666666"
     borderopacity="1"
     objecttolerance="10"
     gridtolerance="10"
     guidetolerance="10"
     inkscape:pageopacity="0"
     inkscape:pageshadow="2"
     inkscape:window-width="640"
     inkscape:window-height="480"
     id="namedview4"
     showgrid="false"
     inkscape:zoom="0.47425837"
     inkscape:cx="250"
     inkscape:cy="248.80952"
     inkscape:window-x="0"
     inkscape:window-y="0"
     inkscape:window-maximized="0"
     inkscape:current-layer="svg2" />
  <path
     style="fill:#7babed"
     d="m 196.05528,488.36763 c 0,-4.23281 -1.5873,-4.7619 -14.28571,-4.7619 -12.69841,0 -14.28572,-0.5291 -14.28572,-4.76191 0,-4.23281 -1.5873,-4.7619 -14.28571,-4.7619 -12.69841,0 -14.28571,-0.5291 -14.28571,-4.76191 0,-3.96826 -1.58731,-4.7619 -9.52381,-4.7619 -7.93651,0 -9.52381,-0.79364 -9.52381,-4.76191 0,-3.17459 -1.58731,-4.7619 -4.76191,-4.7619 -3.1746,0 -4.7619,-1.58731 -4.7619,-4.76191 0,-3.17459 -1.58731,-4.7619 -4.76191,-4.7619 -3.1746,0 -4.7619,-1.58731 -4.7619,-4.76191 0,-3.96826 -1.587306,-4.7619 -9.523806,-4.7619 -7.93651,0 -9.52381,-0.79364 -9.52381,-4.7619 0,-3.1746 -1.5873,-4.76191 -4.76191,-4.76191 -3.1746,0 -4.7619,-1.58731 -4.7619,-4.7619 0,-3.1746 -1.5873,-4.76191 -4.76191,-4.76191 -3.96825,0 -4.7619,-1.58731 -4.7619,-9.52381 0,-7.9365 -0.79365,-9.52381 -4.76191,-9.52381 -3.1746,0 -4.7619,-1.58731 -4.7619,-4.7619 0,-3.1746 -1.5873,-4.76191 -4.7619,-4.76191 -3.17461,0 -4.76191,-1.58731 -4.76191,-4.7619 0,-3.1746 -1.5873,-4.76191 -4.7619,-4.76191 -3.96826,0 -4.76191,-1.58731 -4.76191,-9.52381 0,-7.9365 -0.79365,-9.52381 -4.7619,-9.52381 -4.23281,0 -4.76191,-1.58731 -4.76191,-14.28571 0,-12.69841 -0.5291,-14.28572 -4.7619,-14.28572 -4.23281,0 -4.76191,-1.5873 -4.76191,-14.28571 0,-12.6984 -0.5291,-14.28571 -4.7619,-14.28571 -4.6296302,0 -4.7619102,-1.58731 -4.7619102,-57.14286 0,-55.55556 0.13228,-57.14286 4.7619102,-57.14286 4.2328,0 4.7619,-1.5873 4.7619,-14.28571 0,-12.69841 0.5291,-14.28572 4.76191,-14.28572 3.96825,0 4.7619,-1.5873 4.7619,-9.52381 0,-7.9365 0.79365,-9.52381 4.76191,-9.52381 3.96825,0 4.7619,-1.5873 4.7619,-9.52381 0,-7.9365 0.79365,-9.52381 4.76191,-9.52381 3.1746,0 4.7619,-1.5873 4.7619,-4.7619 0,-3.1746 1.5873,-4.7619 4.76191,-4.7619 3.96825,0 4.7619,-1.5873 4.7619,-9.5238 0,-7.936518 0.79365,-9.52382 4.7619,-9.52382 3.17461,0 4.76191,-1.587303 4.76191,-4.761905 0,-3.174602 1.5873,-4.761905 4.7619,-4.761905 3.17461,0 4.76191,-1.587302 4.76191,-4.761905 0,-3.174602 1.5873,-4.761904 4.7619,-4.761904 3.17461,0 4.76191,-1.587303 4.76191,-4.761905 0,-3.174603 1.5873,-4.761905 4.7619,-4.761905 3.17461,0 4.76191,-1.587302 4.76191,-4.761905 0,-3.968255 1.5873,-4.761905 9.523806,-4.761905 7.9365,0 9.52381,-0.79365 9.52381,-4.761904 0,-3.174603 1.5873,-4.761905 4.7619,-4.761905 3.1746,0 4.76191,-1.587303 4.76191,-4.761905 0,-3.968255 1.5873,-4.761905 9.52381,-4.761905 7.9365,0 9.52381,-0.79365 9.52381,-4.761905 0,-3.968254 1.5873,-4.761904 9.5238,-4.761904 7.93651,0 9.52381,-0.79365 9.52381,-4.761905 0,-4.232804 1.58731,-4.761905 14.28572,-4.761905 12.69841,0 14.28571,-0.5291 14.28571,-4.761905 0,-4.6296286 1.58731,-4.7619036 57.14286,-4.7619036 55.55555,0 57.14286,0.132276 57.14286,4.7619036 0,4.232805 1.58731,4.761905 14.28571,4.761905 12.69841,0 14.28572,0.529101 14.28572,4.761905 0,4.232805 1.58731,4.761905 14.28571,4.761905 12.6984,0 14.28571,0.5291 14.28571,4.761904 0,3.174603 1.58731,4.761905 4.76191,4.761905 3.17459,0 4.7619,1.587303 4.7619,4.761905 0,3.968255 1.58731,4.761905 9.52381,4.761905 7.9365,0 9.52381,0.79365 9.52381,4.761905 0,3.174602 1.58731,4.761904 4.76191,4.761904 3.17459,0 4.7619,1.587303 4.7619,4.761905 0,3.174603 1.58731,4.761905 4.76191,4.761905 3.17459,0 4.7619,1.587302 4.7619,4.761905 0,3.968255 1.58731,4.761905 9.52381,4.761905 9.52381,0 9.52381,0 9.52381,9.523809 0,7.936507 0.79364,9.52381 4.76191,9.52381 3.17459,0 4.7619,1.587302 4.7619,4.761909 0,3.174601 1.58731,4.761911 4.76191,4.761911 3.17459,0 4.7619,1.5873 4.7619,4.7619 0,3.1746 1.58731,4.7619 4.7619,4.7619 3.96827,0 4.76191,1.5873 4.76191,9.5238 0,7.93651 0.79364,9.52381 4.7619,9.52381 3.96827,0 4.76191,1.58731 4.76191,9.52381 0,7.93651 0.79364,9.52381 4.7619,9.52381 3.96827,0 4.76191,1.58731 4.76191,9.52381 0,7.93651 0.79364,9.52381 4.7619,9.52381 4.36507,0 4.76191,1.5873 4.76191,19.04762 0,17.46032 0.39683,19.04762 4.7619,19.04762 4.58555,0 4.76191,1.5873 4.76191,42.85714 0,41.26984 -0.17643,42.85715 -4.76191,42.85715 -4.36507,0 -4.7619,1.58731 -4.7619,19.04762 0,17.46031 -0.39684,19.04761 -4.76191,19.04761 -3.96826,0 -4.7619,1.58731 -4.7619,9.52381 0,7.9365 -0.79364,9.52381 -4.76191,9.52381 -3.96826,0 -4.7619,1.58731 -4.7619,9.52381 0,7.9365 -0.79364,9.52381 -4.76191,9.52381 -3.96826,0 -4.7619,1.58731 -4.7619,9.52381 0,7.9365 -0.79364,9.52381 -4.76191,9.52381 -3.17459,0 -4.7619,1.58731 -4.7619,4.76191 0,3.17459 -1.58731,4.7619 -4.7619,4.7619 -3.1746,0 -4.76191,1.58731 -4.76191,4.76191 0,3.17459 -1.58731,4.7619 -4.7619,4.7619 -3.1746,0 -4.76191,1.58731 -4.76191,4.76191 0,3.17459 -1.58731,4.7619 -4.7619,4.7619 -3.1746,0 -4.76191,1.58731 -4.76191,4.76191 0,3.17459 -1.58731,4.7619 -4.7619,4.7619 -3.1746,0 -4.76191,1.58731 -4.76191,4.76191 0,3.17459 -1.58731,4.7619 -4.7619,4.7619 -3.1746,0 -4.76191,1.58731 -4.76191,4.7619 0,3.1746 -1.58731,4.76191 -4.7619,4.76191 -3.1746,0 -4.76191,1.58731 -4.76191,4.7619 0,3.96827 -1.58731,4.76191 -9.52381,4.76191 -7.9365,0 -9.52381,0.79364 -9.52381,4.7619 0,3.96827 -1.58731,4.76191 -9.52381,4.76191 -7.9365,0 -9.52381,0.79364 -9.52381,4.7619 0,3.96827 -1.5873,4.76191 -9.5238,4.76191 -7.9365,0 -9.52381,0.79364 -9.52381,4.7619 0,4.36507 -1.58731,4.76191 -19.04762,4.76191 -17.46031,0 -19.04762,0.39683 -19.04762,4.7619 0,4.60317 -1.58731,4.76191 -47.61905,4.76191 -46.03175,0 -47.61905,-0.15881 -47.61905,-4.76191 z m 104.76191,-66.66666 c 0,-3.96827 1.58731,-4.76191 9.52381,-4.76191 7.9365,0 9.52381,-0.79364 9.52381,-4.7619 0,-3.96827 1.58731,-4.76191 9.52381,-4.76191 7.9365,0 9.52381,-0.79364 9.52381,-4.7619 0,-3.96827 1.5873,-4.76191 9.5238,-4.76191 7.9365,0 9.52381,-0.79364 9.52381,-4.7619 0,-3.1746 1.58731,-4.76191 4.76191,-4.76191 3.17459,0 4.7619,-1.58731 4.7619,-4.7619 0,-3.1746 1.58731,-4.76191 4.76191,-4.76191 3.17459,0 4.7619,-1.58731 4.7619,-4.7619 0,-3.1746 1.58731,-4.76191 4.76191,-4.76191 3.17459,0 4.7619,-1.58731 4.7619,-4.7619 0,-3.1746 1.58731,-4.76191 4.76191,-4.76191 3.96826,0 4.7619,-1.58731 4.7619,-9.52381 0,-7.9365 0.79365,-9.52381 4.76191,-9.52381 3.17459,0 4.7619,-1.58731 4.7619,-4.7619 0,-3.1746 1.58731,-4.76191 4.76191,-4.76191 4.23281,0 4.7619,-1.5873 4.7619,-14.28571 0,-12.6984 0.5291,-14.28571 4.76191,-14.28571 4.61759,0 4.7619,-1.58731 4.7619,-52.38096 0,-50.79365 -0.14428,-52.38095 -4.7619,-52.38095 -4.23281,0 -4.76191,-1.5873 -4.76191,-14.28571 0,-12.69842 -0.52909,-14.28572 -4.7619,-14.28572 -3.1746,0 -4.76191,-1.5873 -4.76191,-4.7619 0,-3.1746 -1.58731,-4.76191 -4.7619,-4.76191 -3.96826,0 -4.76191,-1.5873 -4.76191,-9.52381 0,-7.9365 -0.79364,-9.52381 -4.7619,-9.52381 -3.1746,0 -4.76191,-1.5873 -4.76191,-4.7619 0,-3.1746 -1.58731,-4.76191 -4.7619,-4.76191 -3.1746,0 -4.76191,-1.5873 -4.76191,-4.7619 0,-3.1746 -1.58731,-4.76191 -4.7619,-4.76191 -3.1746,0 -4.76191,-1.5873 -4.76191,-4.7619 0,-3.1746 -1.58731,-4.7619 -4.7619,-4.7619 -3.1746,0 -4.76191,-1.5873 -4.76191,-4.7619 0,-3.1746 -1.58731,-4.7619 -4.7619,-4.7619 -3.1746,0 -4.76191,-1.58731 -4.76191,-4.761911 0,-3.968259 -1.5873,-4.761909 -9.5238,-4.761909 -7.9365,0 -9.52381,-0.79365 -9.52381,-4.761905 0,-3.968255 -1.58731,-4.761905 -9.52381,-4.761905 -7.9365,0 -9.52381,-0.79365 -9.52381,-4.761905 0,-4.365078 -1.58731,-4.761904 -19.04762,-4.761904 -17.46031,0 -19.04762,-0.396827 -19.04762,-4.761905 0,-4.365079 -1.58731,-4.761905 -19.04762,-4.761905 -17.46031,0 -19.04762,0.396826 -19.04762,4.761905 0,4.444445 -1.58731,4.761905 -23.80952,4.761905 -22.22222,0 -23.80953,0.317459 -23.80953,4.761904 0,3.968255 -1.5873,4.761905 -9.52381,4.761905 -7.9365,0 -9.52381,0.79365 -9.52381,4.761905 0,3.968255 -1.5873,4.761905 -9.52381,4.761905 -7.9365,0 -9.52381,0.79365 -9.52381,4.761909 0,3.968261 -1.5873,4.761911 -9.5238,4.761911 -7.93651,0 -9.52381,0.79365 -9.52381,4.7619 0,3.1746 -1.58731,4.7619 -4.76191,4.7619 -3.1746,0 -4.7619,1.5873 -4.7619,4.7619 0,3.1746 -1.58731,4.7619 -4.76191,4.7619 -3.1746,0 -4.7619,1.58731 -4.7619,4.76191 0,3.1746 -1.58731,4.7619 -4.76191,4.7619 -3.96825,0 -4.7619,1.58731 -4.7619,9.52381 0,7.93651 -0.79365,9.52381 -4.761906,9.52381 -3.1746,0 -4.7619,1.58731 -4.7619,4.76191 0,3.1746 -1.5873,4.7619 -4.76191,4.7619 -4.2328,0 -4.7619,1.58731 -4.7619,14.28572 0,12.69841 -0.5291,14.28571 -4.76191,14.28571 -4.44444,0 -4.7619,1.5873 -4.7619,23.80953 0,22.22222 -0.31746,23.80952 -4.76191,23.80952 -3.96825,0 -4.7619,1.58731 -4.7619,9.52381 0,7.9365 0.79365,9.52381 4.7619,9.52381 4.44445,0 4.76191,1.58731 4.76191,23.80952 0,22.22222 0.31746,23.80953 4.7619,23.80953 4.23281,0 4.76191,1.58731 4.76191,14.28571 0,12.69841 0.5291,14.28571 4.7619,14.28571 3.96826,0 4.76191,1.58731 4.76191,9.52381 0,7.9365 0.79365,9.52381 4.7619,9.52381 3.1746,0 4.761906,1.58731 4.761906,4.76191 0,3.17459 1.5873,4.7619 4.7619,4.7619 3.1746,0 4.76191,1.58731 4.76191,4.76191 0,3.17459 1.5873,4.7619 4.7619,4.7619 3.1746,0 4.76191,1.58731 4.76191,4.76191 0,3.17459 1.5873,4.7619 4.7619,4.7619 3.1746,0 4.76191,1.58731 4.76191,4.76191 0,3.17459 1.5873,4.7619 4.7619,4.7619 3.1746,0 4.76191,1.58731 4.76191,4.76191 0,3.17459 1.5873,4.7619 4.7619,4.7619 3.1746,0 4.7619,1.58731 4.7619,4.76191 0,3.96826 1.58731,4.7619 9.52381,4.7619 7.93651,0 9.52381,0.79364 9.52381,4.76191 0,3.96826 1.58731,4.7619 9.52381,4.7619 7.93651,0 9.52381,0.79364 9.52381,4.76191 0,4.62961 1.58731,4.7619 57.14286,4.7619 55.55555,0 57.14286,-0.13238 57.14286,-4.7619 z M 310.341,355.0343 c 0,-3.96826 -1.58731,-4.76191 -9.52381,-4.76191 -7.9365,0 -9.52381,-0.79364 -9.52381,-4.7619 0,-3.1746 -1.58731,-4.76191 -4.76191,-4.76191 -3.17459,0 -4.7619,-1.58731 -4.7619,-4.7619 0,-3.1746 -1.58731,-4.76191 -4.76191,-4.76191 -3.17459,0 -4.7619,-1.5873 -4.7619,-4.7619 0,-3.1746 -1.58731,-4.7619 -4.76191,-4.7619 -4.65609,0 -4.7619,-1.58731 -4.7619,-71.42858 0,-69.84127 0.10571,-71.42857 4.7619,-71.42857 3.96827,0 4.76191,-1.5873 4.76191,-9.52381 0,-7.9365 0.79364,-9.52381 4.7619,-9.52381 3.1746,0 4.76191,-1.5873 4.76191,-4.7619 0,-3.96826 1.58731,-4.76191 9.52381,-4.76191 7.9365,0 9.52381,-0.79365 9.52381,-4.7619 0,-4.36508 1.58731,-4.76191 19.04762,-4.76191 17.46031,0 19.04762,0.39683 19.04762,4.76191 0,3.96825 1.5873,4.7619 9.5238,4.7619 7.9365,0 9.52381,0.79365 9.52381,4.76191 0,3.1746 1.58731,4.7619 4.76191,4.7619 3.17459,0 4.7619,1.58731 4.7619,4.76191 0,3.1746 1.58731,4.7619 4.76191,4.7619 4.36507,0 4.7619,1.5873 4.7619,19.04762 0,17.46032 0.39684,19.04762 4.76191,19.04762 4.5635,0 4.7619,1.5873 4.7619,38.09524 0,36.50793 -0.19833,38.09524 -4.7619,38.09524 -4.36507,0 -4.76191,1.58731 -4.76191,19.04762 0,17.46031 -0.39683,19.04762 -4.7619,19.04762 -3.96826,0 -4.76191,1.5873 -4.76191,9.5238 0,7.9365 -0.79364,9.52381 -4.7619,9.52381 -3.1746,0 -4.76191,1.58731 -4.76191,4.76191 0,3.96826 -1.58731,4.7619 -9.52381,4.7619 -7.9365,0 -9.5238,0.79365 -9.5238,4.76191 0,4.23281 -1.58731,4.7619 -14.28572,4.7619 -12.6984,0 -14.28571,-0.52909 -14.28571,-4.7619 z m 19.04762,-28.57143 c 0,-3.1746 1.58731,-4.7619 4.7619,-4.7619 3.1746,0 4.76191,-1.58731 4.76191,-4.76191 0,-3.17459 1.5873,-4.7619 4.7619,-4.7619 4.63981,0 4.7619,-1.58731 4.7619,-61.90477 0,-60.31746 -0.12214,-61.90476 -4.7619,-61.90476 -3.1746,0 -4.7619,-1.5873 -4.7619,-4.7619 0,-3.17461 -1.58731,-4.76191 -4.76191,-4.76191 -3.17459,0 -4.7619,-1.5873 -4.7619,-4.7619 0,-3.96826 -1.58731,-4.76191 -9.52381,-4.76191 -7.9365,0 -9.52381,0.79365 -9.52381,4.76191 0,3.1746 -1.58731,4.7619 -4.76191,4.7619 -3.17459,0 -4.7619,1.5873 -4.7619,4.76191 0,3.1746 -1.58731,4.7619 -4.76191,4.7619 -4.63981,0 -4.7619,1.5873 -4.7619,61.90476 0,60.31746 0.12214,61.90477 4.7619,61.90477 3.1746,0 4.76191,1.58731 4.76191,4.7619 0,3.1746 1.58731,4.76191 4.7619,4.76191 3.1746,0 4.76191,1.5873 4.76191,4.7619 0,3.96826 1.58731,4.7619 9.52381,4.7619 7.9365,0 9.52381,-0.79364 9.52381,-4.7619 z m -190.47619,19.04762 c 0,-3.1746 -1.58731,-4.76191 -4.76191,-4.76191 -3.1746,0 -4.7619,-1.58731 -4.7619,-4.7619 0,-3.1746 -1.58731,-4.76191 -4.76191,-4.76191 -3.1746,0 -4.7619,-1.5873 -4.7619,-4.7619 0,-3.1746 -1.58731,-4.7619 -4.76191,-4.7619 -3.96825,0 -4.7619,-1.58731 -4.7619,-9.52381 l 0,-9.52381 14.28571,0 c 12.69841,0 14.28572,0.52909 14.28572,4.7619 0,3.1746 1.5873,4.76191 4.7619,4.76191 3.1746,0 4.7619,1.58731 4.7619,4.7619 0,4.44445 1.58731,4.76191 23.80953,4.76191 l 23.80952,0 0,-9.52381 c 0,-7.9365 0.79365,-9.52381 4.76191,-9.52381 3.96825,0 4.7619,-1.58731 4.7619,-9.52381 0,-7.9365 -0.79365,-9.52381 -4.7619,-9.52381 -3.96826,0 -4.76191,-1.58731 -4.76191,-9.52381 0,-9.52381 0,-9.52381 -9.52381,-9.52381 -7.9365,0 -9.52381,-0.79364 -9.52381,-4.76191 0,-3.96826 -1.5873,-4.7619 -9.52381,-4.7619 -9.52381,0 -9.52381,0 -9.52381,-9.52381 0,-7.9365 0.79365,-9.52381 4.76191,-9.52381 3.1746,0 4.7619,-1.5873 4.7619,-4.76191 0,-4.2328 1.58731,-4.7619 14.28572,-4.7619 l 14.28571,0 0,-23.80952 0,-23.80953 -9.52381,0 c -7.9365,0 -9.52381,-0.79365 -9.52381,-4.7619 0,-3.96826 -1.5873,-4.76191 -9.52381,-4.76191 -7.9365,0 -9.52381,0.79365 -9.52381,4.76191 0,3.1746 -1.5873,4.7619 -4.7619,4.7619 -3.1746,0 -4.76191,1.5873 -4.76191,4.76191 0,3.1746 -1.5873,4.7619 -4.7619,4.7619 -3.1746,0 -4.7619,1.5873 -4.7619,4.76191 0,4.2328 -1.58731,4.7619 -14.28572,4.7619 l -14.28571,0 0,-9.52381 c 0,-7.93651 0.79365,-9.52381 4.7619,-9.52381 3.96826,0 4.76191,-1.5873 4.76191,-9.52381 0,-9.52381 0,-9.52381 9.52381,-9.52381 7.9365,0 9.52381,-0.79365 9.52381,-4.7619 0,-3.96826 1.5873,-4.76191 9.5238,-4.76191 7.93651,0 9.52381,-0.79365 9.52381,-4.7619 0,-4.23281 1.58731,-4.76191 14.28572,-4.76191 12.69841,0 14.28571,0.5291 14.28571,4.76191 0,3.96825 1.58731,4.7619 9.52381,4.7619 7.93651,0 9.52381,0.79365 9.52381,4.76191 0,3.1746 1.5873,4.7619 4.76191,4.7619 3.1746,0 4.7619,1.58731 4.7619,4.76191 0,3.1746 1.5873,4.7619 4.76191,4.7619 4.49735,0 4.7619,1.5873 4.7619,28.57143 0,26.98413 -0.26455,28.57143 -4.7619,28.57143 -4.23281,0 -4.76191,1.5873 -4.76191,14.28571 0,12.69841 0.5291,14.28572 4.76191,14.28572 3.96825,0 4.7619,1.58731 4.7619,9.52381 0,7.9365 0.79365,9.52381 4.76191,9.52381 4.36507,0 4.7619,1.58731 4.7619,19.04762 0,17.46031 -0.39683,19.04762 -4.7619,19.04762 -3.96826,0 -4.76191,1.58731 -4.76191,9.52381 0,7.9365 -0.79365,9.5238 -4.7619,9.5238 -3.17461,0 -4.76191,1.58731 -4.76191,4.76191 0,3.17459 -1.5873,4.7619 -4.7619,4.7619 -3.17461,0 -4.76191,1.58731 -4.76191,4.76191 0,4.53514 -1.5873,4.7619 -33.33333,4.7619 -31.74603,0 -33.33333,-0.22666 -33.33333,-4.7619 z"
     id="path3338"
     inkscape:connector-curvature="0" />
</svg>
