<?xml version="1.0" encoding="UTF-8" standalone="no"?>
<!-- Created with Inkscape (http://www.inkscape.org/) -->

<svg
  
   xmlns="http://www.w3.org/2000/svg"
   id="svg2"
   version="1.1"
   inkscape:version="0.91 r13725"
   width="30"
   height="60"
   viewBox="0 0 66.666664 130.95238"
   sodipodi:docname="but-fix.svg">
  <metadata
     id="metadata8">
    <rdf:RDF>
      <cc:Work
         rdf:about="">
        <dc:format>image/svg+xml</dc:format>
        <dc:type
           rdf:resource="http://purl.org/dc/dcmitype/StillImage" />
        <dc:title></dc:title>
      </cc:Work>
    </rdf:RDF>
  </metadata>
  <defs
     id="defs6" />
  <sodipodi:namedview
     pagecolor="#ffffff"
     bordercolor="#666666"
     borderopacity="1"
     objecttolerance="10"
     gridtolerance="10"
     guidetolerance="10"
     inkscape:pageopacity="0"
     inkscape:pageshadow="2"
     inkscape:window-width="1280"
     inkscape:window-height="977"
     id="namedview4"
     showgrid="false"
     inkscape:zoom="1.8021819"
     inkscape:cx="33.333332"
     inkscape:cy="65.476189"
     inkscape:window-x="-4"
     inkscape:window-y="-4"
     inkscape:window-maximized="1"
     inkscape:current-layer="svg2" />
  <path
     style="fill:#1e1e1e"
     d="M 32.174944,97.651204 1.3233566,66.730983 32.209296,34.896931 C 49.196562,17.388204 63.898807,2.9094469 64.88095,2.7219166 65.863093,2.5343862 66.666664,30.773809 66.666664,65.47619 c 0,34.70238 -0.819031,63.09524 -1.820067,63.09524 -1.001038,0 -15.703282,-13.9141 -32.671653,-30.920226 z M 58.333331,83.333333 c -2.370205,-2.619048 -5.380893,-4.761905 -6.690416,-4.761905 -1.309524,0 -0.441693,2.142857 1.928511,4.761905 2.370205,2.619047 5.380893,4.761904 6.690417,4.761904 1.309524,0 0.441693,-2.142857 -1.928512,-4.761904 z M 48.214284,74.269078 C 57.326457,66.443085 50.470474,50 38.095237,50 29.200896,50 23.296889,57.236207 24.237297,66.984895 25.475092,79.81643 37.501256,83.469966 48.214284,74.269078 Z M 28.791827,72.884611 C 23.718184,66.771245 26.546156,56.331897 33.97997,53.73279 c 5.473605,-1.913755 7.483831,-1.422426 11.787223,2.880967 4.303,4.302997 4.794688,6.314119 2.881803,11.787223 -1.743765,4.989215 -4.087857,6.773886 -9.609069,7.315841 -4.327412,0.424776 -8.502695,-0.729124 -10.2481,-2.83221 z"
     id="path3338"
     inkscape:connector-curvature="0" />
</svg>
