
<svg
   
   xmlns="http://www.w3.org/2000/svg"
   xmlns:sodipodi="http://sodipodi.sourceforge.net/DTD/sodipodi-0.dtd"
   xmlns:inkscape="http://www.inkscape.org/namespaces/inkscape"
   id="svg2"
   version="1.1"
   inkscape:version="0.91 r13725"
   width="500"
   height="497.61905"
   viewBox="0 0 500 497.61905"
   sodipodi:docname="fish.svg">
  <metadata
     id="metadata8">
    <rdf:RDF>
      <cc:Work
         rdf:about="">
        <dc:format>image/svg+xml</dc:format>
        <dc:type
           rdf:resource="http://purl.org/dc/dcmitype/StillImage" />
        <dc:title></dc:title>
      </cc:Work>
    </rdf:RDF>
  </metadata>
  <defs
     id="defs6" />
  <sodipodi:namedview
     pagecolor="#ffffff"
     bordercolor="#666666"
     borderopacity="1"
     objecttolerance="10"
     gridtolerance="10"
     guidetolerance="10"
     inkscape:pageopacity="0"
     inkscape:pageshadow="2"
     inkscape:window-width="640"
     inkscape:window-height="480"
     id="namedview4"
     showgrid="false"
     inkscape:zoom="0.47425837"
     inkscape:cx="250"
     inkscape:cy="248.80952"
     inkscape:window-x="0"
     inkscape:window-y="0"
     inkscape:window-maximized="0"
     inkscape:current-layer="svg2" />
  <path
     style="fill:#7babed"
     d="m 242.48385,417.48385 c 0,-3.1746 1.5873,-4.76191 4.76191,-4.76191 3.1746,0 4.7619,-1.58731 4.7619,-4.7619 0,-3.1746 1.5873,-4.76191 4.7619,-4.76191 3.96826,0 4.76191,-1.5873 4.76191,-9.5238 0,-7.9365 0.79365,-9.52381 4.7619,-9.52381 3.1746,0 4.76191,-1.58731 4.76191,-4.76191 0,-3.17459 -1.58731,-4.7619 -4.76191,-4.7619 -3.1746,0 -4.7619,-1.58731 -4.7619,-4.76191 0,-4.23281 -1.5873,-4.7619 -14.28571,-4.7619 -12.69842,0 -14.28572,-0.5291 -14.28572,-4.76191 0,-3.17459 -1.5873,-4.7619 -4.7619,-4.7619 -3.17461,0 -4.76191,-1.58731 -4.76191,-4.76191 0,-3.96826 -1.5873,-4.7619 -9.52381,-4.7619 -7.9365,0 -9.52381,-0.79364 -9.52381,-4.76191 0,-3.17459 -1.5873,-4.7619 -4.7619,-4.7619 -3.1746,0 -4.76191,-1.58731 -4.76191,-4.76191 0,-3.17459 -1.5873,-4.7619 -4.7619,-4.7619 -3.1746,0 -4.7619,-1.58731 -4.7619,-4.76191 0,-3.17459 -1.58731,-4.7619 -4.76191,-4.7619 -3.1746,0 -4.7619,-1.58731 -4.7619,-4.7619 0,-3.96827 -1.58731,-4.76191 -9.52381,-4.76191 -7.93651,0 -9.52381,-0.79364 -9.52381,-4.7619 0,-3.1746 -1.5873,-4.76191 -4.76191,-4.76191 -3.1746,0 -4.7619,-1.5873 -4.7619,-4.7619 0,-3.17461 -1.5873,-4.76191 -4.76191,-4.76191 -3.1746,0 -4.7619,-1.5873 -4.7619,-4.7619 0,-3.96826 -1.5873,-4.76191 -9.52381,-4.76191 -7.93651,0 -9.52381,0.79365 -9.52381,4.76191 0,3.1746 -1.5873,4.7619 -4.7619,4.7619 -3.96826,0 -4.76191,1.5873 -4.76191,9.52381 0,7.9365 -0.79365,9.52381 -4.7619,9.52381 -3.1746,0 -4.761907,1.58731 -4.761907,4.76191 0,3.17459 -1.5873,4.7619 -4.7619,4.7619 -3.1746,0 -4.76191,1.58731 -4.76191,4.7619 0,3.96827 -1.5873,4.76191 -9.52381,4.76191 -7.9365,0 -9.5238,0.79364 -9.5238,4.7619 0,4.36508 -1.58731,4.76191 -19.04762,4.76191 l -19.04762,0 0,-14.28572 c 0,-12.6984 0.5291,-14.28571 4.7619,-14.28571 4.23281,0 4.76191,-1.58731 4.76191,-14.28571 0,-12.69842 0.5291,-14.28572 4.7619,-14.28572 3.96826,0 4.76191,-1.5873 4.76191,-9.52381 0,-7.9365 0.79365,-9.52381 4.7619,-9.52381 3.1746,0 4.76191,-1.5873 4.76191,-4.7619 0,-3.96826 1.5873,-4.76191 9.52381,-4.76191 7.9365,0 9.5238,-0.79365 9.5238,-4.7619 0,-3.1746 -1.5873,-4.76191 -4.7619,-4.76191 -3.1746,0 -4.7619,-1.5873 -4.7619,-4.7619 0,-3.1746 -1.58731,-4.7619 -4.76191,-4.7619 -3.1746,0 -4.7619,-1.58731 -4.7619,-4.76191 0,-3.1746 -1.58731,-4.7619 -4.76191,-4.7619 -3.1746,0 -4.7619,-1.58731 -4.7619,-4.76191 0,-3.1746 -1.5873,-4.7619 -4.76191,-4.7619 -4.2328,0 -4.7619,-1.58731 -4.7619,-14.28572 0,-12.69841 -0.5291,-14.28571 -4.76191,-14.28571 -4.2328,0 -4.7619,-1.5873 -4.7619,-14.28572 0,-12.69841 0.5291,-14.28571 4.7619,-14.28571 3.17461,0 4.76191,-1.5873 4.76191,-4.7619 0,-3.17461 1.5873,-4.76191 4.7619,-4.76191 3.17461,0 4.76191,1.5873 4.76191,4.76191 0,4.2328 1.5873,4.7619 14.28571,4.7619 12.69841,0 14.28571,0.5291 14.28571,4.7619 0,3.17461 1.58731,4.76191 4.76191,4.76191 3.1746,0 4.7619,1.5873 4.7619,4.7619 0,3.17461 1.58731,4.76191 4.76191,4.76191 3.1746,0 4.7619,1.5873 4.7619,4.7619 0,3.17461 1.587307,4.76191 4.761907,4.76191 3.1746,0 4.7619,1.5873 4.7619,4.7619 0,3.17461 1.5873,4.76191 4.76191,4.76191 3.1746,0 4.7619,1.5873 4.7619,4.7619 0,4.23281 1.5873,4.76191 14.28572,4.76191 12.69841,0 14.28571,-0.5291 14.28571,-4.76191 0,-3.1746 1.5873,-4.7619 4.7619,-4.7619 3.96826,0 4.76191,-1.5873 4.76191,-9.52381 0,-7.93651 0.79365,-9.52381 4.7619,-9.52381 3.1746,0 4.76191,-1.5873 4.76191,-4.76191 0,-3.1746 1.5873,-4.7619 4.7619,-4.7619 3.1746,0 4.76191,-1.5873 4.76191,-4.76191 0,-3.1746 1.5873,-4.7619 4.7619,-4.7619 3.96826,0 4.76191,-1.5873 4.76191,-9.52381 0,-7.93651 -0.79365,-9.52381 -4.76191,-9.52381 -3.1746,0 -4.7619,-1.5873 -4.7619,-4.7619 0,-3.17461 -1.58731,-4.76191 -4.76191,-4.76191 -3.1746,0 -4.7619,-1.5873 -4.7619,-4.7619 0,-3.17461 -1.58731,-4.76192 -4.76191,-4.76192 -3.1746,0 -4.7619,-1.5873 -4.7619,-4.7619 0,-3.1746 -1.5873,-4.76191 -4.76191,-4.76191 -3.1746,0 -4.7619,-1.5873 -4.7619,-4.7619 0,-3.1746 1.5873,-4.761906 4.7619,-4.761906 3.17461,0 4.76191,-1.5873 4.76191,-4.7619 0,-4.232806 1.5873,-4.761906 14.28571,-4.761906 12.69841,0 14.28572,-0.5291 14.28572,-4.761904 0,-4.36508 1.5873,-4.761905 19.04761,-4.761905 17.46032,0 19.04762,-0.396826 19.04762,-4.761905 0,-4.563492 1.5873,-4.761905 38.09524,-4.761905 36.50793,0 38.09524,0.198412 38.09524,4.761905 0,3.174603 1.58731,4.761905 4.7619,4.761905 3.1746,0 4.76191,1.587301 4.76191,4.761905 0,3.174602 1.5873,4.761904 4.7619,4.761904 3.1746,0 4.7619,1.587306 4.7619,4.761906 0,3.1746 1.58731,4.7619 4.76191,4.7619 3.17459,0 4.7619,1.587306 4.7619,4.761906 0,3.1746 1.58731,4.7619 4.76191,4.7619 3.17459,0 4.7619,1.58731 4.7619,4.76191 0,3.1746 1.58731,4.7619 4.76191,4.7619 3.17459,0 4.7619,1.58731 4.7619,4.76192 0,3.96825 1.58731,4.7619 9.52381,4.7619 7.9365,0 9.52381,0.79365 9.52381,4.76191 0,3.1746 1.58731,4.7619 4.76191,4.7619 3.17459,0 4.7619,1.5873 4.7619,4.76191 0,3.1746 1.58731,4.7619 4.7619,4.7619 3.1746,0 4.76191,1.5873 4.76191,4.76191 0,3.96825 1.58731,4.7619 9.52381,4.7619 7.9365,0 9.52381,0.79365 9.52381,4.7619 0,3.17461 1.58731,4.76191 4.7619,4.76191 3.96826,0 4.76191,1.5873 4.76191,9.52381 0,7.93651 0.79364,9.52381 4.7619,9.52381 3.1746,0 4.76191,1.5873 4.76191,4.7619 0,3.17461 1.58731,4.76191 4.7619,4.76191 3.96826,0 4.76191,1.5873 4.76191,9.52381 0,7.9365 0.79364,9.52381 4.7619,9.52381 3.96826,0 4.7619,1.5873 4.7619,9.52381 0,7.9365 0.79365,9.52381 4.76191,9.52381 4.23281,0 4.7619,1.5873 4.7619,14.28571 0,12.69841 -0.52909,14.28571 -4.7619,14.28571 -3.96826,0 -4.76191,1.58731 -4.76191,9.52381 0,7.93651 -0.79364,9.52381 -4.7619,9.52381 -3.1746,0 -4.7619,1.5873 -4.7619,4.76191 0,3.1746 -1.58731,4.7619 -4.76191,4.7619 -3.17459,0 -4.7619,1.5873 -4.7619,4.76191 0,3.1746 -1.58731,4.7619 -4.76191,4.7619 -3.17459,0 -4.7619,1.58731 -4.7619,4.76191 0,3.17459 -1.58731,4.7619 -4.76191,4.7619 -3.17459,0 -4.7619,1.58731 -4.7619,4.76191 0,3.17459 -1.58731,4.7619 -4.76191,4.7619 -3.17459,0 -4.7619,1.58731 -4.7619,4.7619 0,3.1746 -1.58731,4.76191 -4.76191,4.76191 -3.17459,0 -4.7619,1.58731 -4.7619,4.7619 0,3.96827 -1.58731,4.76191 -9.52381,4.76191 -7.9365,0 -9.52381,0.79364 -9.52381,4.7619 0,3.1746 -1.58731,4.76191 -4.7619,4.76191 -3.1746,0 -4.76191,1.58731 -4.76191,4.7619 0,3.1746 -1.58731,4.76191 -4.7619,4.76191 -3.96826,0 -4.76191,1.58731 -4.76191,9.52381 0,7.9365 -0.79364,9.52381 -4.7619,9.52381 -3.1746,0 -4.76191,1.58731 -4.76191,4.7619 0,3.1746 -1.58731,4.76191 -4.7619,4.76191 -3.1746,0 -4.76191,1.58731 -4.76191,4.7619 0,3.1746 -1.58731,4.76191 -4.7619,4.76191 -3.1746,0 -4.76191,1.5873 -4.76191,4.7619 0,3.96826 -1.5873,4.7619 -9.5238,4.7619 -7.9365,0 -9.52381,0.79365 -9.52381,4.76191 0,4.23281 -1.58731,4.7619 -14.28572,4.7619 -12.6984,0 -14.28571,0.5291 -14.28571,4.76191 0,4.23281 -1.58731,4.7619 -14.28572,4.7619 -12.69841,0 -14.28571,-0.52909 -14.28571,-4.7619 z M 394.8648,250.81718 c 0,-7.9365 0.79364,-9.52381 4.7619,-9.52381 3.96826,0 4.76191,-1.5873 4.76191,-9.5238 0,-7.93651 -0.79365,-9.52381 -4.76191,-9.52381 -3.17459,0 -4.7619,-1.58731 -4.7619,-4.76191 0,-4.2328 -1.58731,-4.7619 -14.28572,-4.7619 -12.6984,0 -14.28571,0.5291 -14.28571,4.7619 0,3.1746 -1.58731,4.76191 -4.7619,4.76191 -4.23281,0 -4.76191,1.5873 -4.76191,14.28571 0,12.69841 0.5291,14.28571 4.76191,14.28571 3.17459,0 4.7619,1.58731 4.7619,4.76191 0,4.2328 1.58731,4.7619 14.28571,4.7619 l 14.28572,0 0,-9.52381 z"
     id="path3364"
     inkscape:connector-curvature="0" />
</svg>
