<?xml version="1.0" encoding="UTF-8" standalone="no"?>
<!-- Created with Inkscape (http://www.inkscape.org/) -->

<svg
  
   xmlns="http://www.w3.org/2000/svg"
   xmlns:sodipodi="http://sodipodi.sourceforge.net/DTD/sodipodi-0.dtd"
   xmlns:inkscape="http://www.inkscape.org/namespaces/inkscape"
   id="svg2"
   version="1.1"
   inkscape:version="0.91 r13725"
   width="500"
   height="497.61905"
   viewBox="0 0 500 497.61905"
   sodipodi:docname="nofish.svg">
  <metadata
     id="metadata8">
    <rdf:RDF>
      <cc:Work
         rdf:about="">
        <dc:format>image/svg+xml</dc:format>
        <dc:type
           rdf:resource="http://purl.org/dc/dcmitype/StillImage" />
        <dc:title></dc:title>
      </cc:Work>
    </rdf:RDF>
  </metadata>
  <defs
     id="defs6" />
  <sodipodi:namedview
     pagecolor="#ffffff"
     bordercolor="#666666"
     borderopacity="1"
     objecttolerance="10"
     gridtolerance="10"
     guidetolerance="10"
     inkscape:pageopacity="0"
     inkscape:pageshadow="2"
     inkscape:window-width="640"
     inkscape:window-height="480"
     id="namedview4"
     showgrid="false"
     inkscape:zoom="0.47425837"
     inkscape:cx="250"
     inkscape:cy="248.80952"
     inkscape:window-x="0"
     inkscape:window-y="0"
     inkscape:window-maximized="0"
     inkscape:current-layer="svg2" />
  <path
     style="fill:#7babed"
     d="m 177.10856,472.89145 c 0,-3.96826 -1.58731,-4.76191 -9.52381,-4.76191 -7.93651,0 -9.52381,-0.79364 -9.52381,-4.7619 0,-3.96826 -1.58731,-4.76191 -9.52381,-4.76191 -7.93651,0 -9.52381,-0.79364 -9.52381,-4.7619 0,-3.96826 -1.5873,-4.76191 -9.52381,-4.76191 -7.93651,0 -9.52381,-0.79364 -9.52381,-4.7619 0,-3.1746 -1.5873,-4.76191 -4.76191,-4.76191 -3.1746,0 -4.7619,-1.58731 -4.7619,-4.7619 0,-3.96826 -1.5873,-4.76191 -9.52381,-4.76191 -7.936507,0 -9.523807,-0.79364 -9.523807,-4.7619 0,-3.1746 -1.58731,-4.76191 -4.76191,-4.76191 -3.1746,0 -4.7619,-1.58731 -4.7619,-4.7619 0,-3.1746 -1.58731,-4.76191 -4.76191,-4.76191 -3.1746,0 -4.7619,-1.5873 -4.7619,-4.7619 0,-3.1746 -1.58731,-4.7619 -4.76191,-4.7619 -3.96825,0 -4.7619,-1.58731 -4.7619,-9.52381 0,-7.9365 -0.79365,-9.52381 -4.76191,-9.52381 -3.1746,0 -4.7619,-1.58731 -4.7619,-4.76191 0,-3.17459 -1.58731,-4.7619 -4.76191,-4.7619 -3.96825,0 -4.7619,-1.58731 -4.7619,-9.52381 0,-7.9365 -0.79365,-9.52381 -4.76191,-9.52381 -3.96825,0 -4.7619,-1.58731 -4.7619,-9.52381 0,-7.9365 -0.79365,-9.52381 -4.76191,-9.52381 -3.96825,0 -4.7619,-1.58731 -4.7619,-9.52381 0,-7.9365 -0.79365,-9.52381 -4.76191,-9.52381 -4.44444,0 -4.7619,-1.58731 -4.7619,-23.80953 0,-22.22221 -0.31746,-23.80952 -4.76191,-23.80952 -4.4444403,0 -4.7619003,-1.58731 -4.7619003,-23.80952 0,-22.22223 0.31746,-23.80953 4.7619003,-23.80953 4.44445,0 4.76191,-1.5873 4.76191,-23.80952 0,-22.22222 0.31746,-23.80953 4.7619,-23.80953 4.23281,0 4.76191,-1.5873 4.76191,-14.28571 0,-12.69841 0.5291,-14.28571 4.7619,-14.28571 3.96826,0 4.76191,-1.58731 4.76191,-9.52381 0,-7.93651 0.79365,-9.52381 4.7619,-9.52381 3.1746,0 4.76191,-1.58731 4.76191,-4.76191 0,-3.1746 1.5873,-4.7619 4.7619,-4.7619 3.96826,0 4.76191,-1.58731 4.76191,-9.52381 0,-7.936516 0.79365,-9.523816 4.7619,-9.523816 3.1746,0 4.76191,-1.5873 4.76191,-4.761907 0,-3.174603 1.5873,-4.761905 4.7619,-4.761905 3.1746,0 4.76191,-1.587302 4.76191,-4.761905 0,-3.174602 1.5873,-4.761905 4.7619,-4.761905 3.1746,0 4.76191,-1.587302 4.76191,-4.761904 0,-3.174603 1.5873,-4.761905 4.7619,-4.761905 3.1746,0 4.76191,-1.587303 4.76191,-4.761905 0,-3.174602 1.5873,-4.761905 4.7619,-4.761905 3.17461,0 4.761907,-1.587302 4.761907,-4.761905 0,-3.968254 1.5873,-4.761904 9.52381,-4.761904 7.93651,0 9.52381,-0.79365 9.52381,-4.761905 0,-3.174603 1.5873,-4.761905 4.7619,-4.761905 3.17461,0 4.76191,-1.587302 4.76191,-4.761905 0,-3.968255 1.5873,-4.761905 9.52381,-4.761905 7.93651,0 9.52381,-0.79365 9.52381,-4.761904 0,-4.232805 1.5873,-4.761905 14.28571,-4.761905 12.69841,0 14.28572,-0.529101 14.28572,-4.761905 0,-4.648526 1.5873,-4.761905 66.66666,-4.761905 65.07936,0 66.66667,0.113379 66.66667,4.761905 0,4.232804 1.58731,4.761905 14.28572,4.761905 12.6984,0 14.28571,0.5291 14.28571,4.761905 0,3.968254 1.58731,4.761904 9.52381,4.761904 7.9365,0 9.52381,0.79365 9.52381,4.761905 0,3.968255 1.58731,4.761905 9.52381,4.761905 7.9365,0 9.52381,0.79365 9.52381,4.761905 0,3.174602 1.58731,4.761905 4.76191,4.761905 3.17459,0 4.7619,1.587302 4.7619,4.761904 0,3.968255 1.58731,4.761905 9.52381,4.761905 7.9365,0 9.52381,0.79365 9.52381,4.761905 0,3.174602 1.58731,4.761905 4.7619,4.761905 3.1746,0 4.76191,1.587302 4.76191,4.761905 0,3.174602 1.58731,4.761904 4.7619,4.761904 3.96827,0 4.76191,1.587303 4.76191,9.52381 0,7.936512 0.79364,9.523812 4.7619,9.523812 3.1746,0 4.76191,1.5873 4.76191,4.761896 0,3.17461 1.58731,4.76192 4.7619,4.76192 3.1746,0 4.76191,1.5873 4.76191,4.7619 0,3.1746 1.58731,4.76191 4.7619,4.76191 3.96827,0 4.76191,1.5873 4.76191,9.52381 0,7.9365 0.79364,9.52381 4.7619,9.52381 3.96827,0 4.76191,1.5873 4.76191,9.52381 0,7.9365 0.79364,9.52381 4.7619,9.52381 4.36507,0 4.76191,1.5873 4.76191,19.04761 0,17.46032 0.39683,19.04762 4.7619,19.04762 4.6176,0 4.76191,1.58731 4.76191,52.38096 0,50.79364 -0.14429,52.38095 -4.76191,52.38095 -4.36507,0 -4.7619,1.58731 -4.7619,19.04762 0,17.46031 -0.39684,19.04762 -4.76191,19.04762 -3.96826,0 -4.7619,1.58731 -4.7619,9.52381 0,7.9365 -0.79364,9.52381 -4.76191,9.52381 -3.96826,0 -4.7619,1.58731 -4.7619,9.52381 0,7.9365 -0.79364,9.52381 -4.76191,9.52381 -3.17459,0 -4.7619,1.58731 -4.7619,4.7619 0,3.1746 -1.58731,4.76191 -4.76191,4.76191 -3.17459,0 -4.7619,1.58731 -4.7619,4.7619 0,3.1746 -1.58731,4.76191 -4.76191,4.76191 -3.17459,0 -4.7619,1.58731 -4.7619,4.7619 0,3.1746 -1.58731,4.76191 -4.76191,4.76191 -3.17459,0 -4.7619,1.5873 -4.7619,4.7619 0,3.1746 -1.58731,4.7619 -4.76191,4.7619 -3.17459,0 -4.7619,1.58731 -4.7619,4.76191 0,3.17459 -1.58731,4.7619 -4.76191,4.7619 -3.17459,0 -4.7619,1.58731 -4.7619,4.76191 0,3.17459 -1.58731,4.7619 -4.7619,4.7619 -3.1746,0 -4.76191,1.58731 -4.76191,4.76191 0,3.17459 -1.58731,4.7619 -4.7619,4.7619 -3.1746,0 -4.76191,1.58731 -4.76191,4.76191 0,3.96826 -1.58731,4.7619 -9.52381,4.7619 -7.9365,0 -9.52381,0.79365 -9.52381,4.76191 0,3.96826 -1.58731,4.7619 -9.52381,4.7619 -7.9365,0 -9.52381,0.79365 -9.52381,4.76191 0,4.23281 -1.58731,4.7619 -14.28571,4.7619 -12.69841,0 -14.28572,0.5291 -14.28572,4.76191 0,4.64852 -1.58731,4.7619 -66.66667,4.7619 -65.07936,0 -66.66666,-0.11333 -66.66666,-4.7619 z m 95.23809,-47.61905 c 0,-4.36507 1.58731,-4.76191 19.04762,-4.76191 17.46031,0 19.04762,-0.39683 19.04762,-4.7619 0,-3.96826 1.58731,-4.76191 9.52381,-4.76191 7.9365,0 9.52381,-0.79364 9.52381,-4.7619 0,-3.96826 1.58731,-4.7619 9.52381,-4.7619 7.9365,0 9.52381,-0.79365 9.52381,-4.76191 0,-3.17459 1.58731,-4.7619 4.76191,-4.7619 3.17459,0 4.7619,-1.58731 4.7619,-4.76191 0,-3.17459 1.58731,-4.7619 4.76191,-4.7619 3.17459,0 4.7619,-1.58731 4.7619,-4.76191 0,-3.17459 1.58731,-4.7619 4.76191,-4.7619 3.17459,0 4.7619,-1.58731 4.7619,-4.76191 0,-3.17459 1.58731,-4.7619 4.76191,-4.7619 3.17459,0 4.7619,-1.58731 4.7619,-4.76191 0,-3.17459 1.58731,-4.7619 4.76191,-4.7619 3.17459,0 4.7619,-1.58731 4.7619,-4.76191 0,-3.17459 1.58731,-4.7619 4.7619,-4.7619 3.96827,0 4.76191,-1.58731 4.76191,-9.52381 0,-7.9365 0.79364,-9.52381 4.7619,-9.52381 3.96827,0 4.76191,-1.58731 4.76191,-9.52381 0,-7.9365 0.79364,-9.52381 4.7619,-9.52381 4.44446,0 4.76191,-1.58731 4.76191,-23.80952 0,-22.22222 0.31745,-23.80953 4.7619,-23.80953 4.23281,0 4.76191,-1.58731 4.76191,-14.28571 0,-12.69842 -0.5291,-14.28572 -4.76191,-14.28572 -4.44445,0 -4.7619,-1.5873 -4.7619,-23.80952 0,-22.22222 -0.31745,-23.80953 -4.76191,-23.80953 -4.23281,0 -4.7619,-1.5873 -4.7619,-14.28571 0,-12.69841 -0.5291,-14.28571 -4.76191,-14.28571 -3.17459,0 -4.7619,-1.58731 -4.7619,-4.76191 0,-3.96825 -1.58731,-4.7619 -9.52381,-4.7619 -7.9365,0 -9.52381,0.79365 -9.52381,4.7619 0,3.1746 -1.58731,4.76191 -4.7619,4.76191 -3.1746,0 -4.76191,1.5873 -4.76191,4.7619 0,3.1746 -1.58731,4.7619 -4.7619,4.7619 -3.1746,0 -4.76191,1.58731 -4.76191,4.76191 0,3.1746 -1.58731,4.7619 -4.7619,4.7619 -3.1746,0 -4.76191,1.58731 -4.76191,4.76191 0,3.1746 -1.58731,4.7619 -4.7619,4.7619 -3.1746,0 -4.76191,1.58731 -4.76191,4.76191 0,3.1746 -1.58731,4.7619 -4.7619,4.7619 -3.1746,0 -4.76191,1.58731 -4.76191,4.76191 0,3.1746 -1.58731,4.7619 -4.7619,4.7619 -3.1746,0 -4.76191,1.58731 -4.76191,4.76191 0,3.1746 -1.58731,4.7619 -4.7619,4.7619 -3.1746,0 -4.76191,1.58731 -4.76191,4.76191 0,4.2328 1.58731,4.7619 14.28572,4.7619 12.6984,0 14.28571,-0.5291 14.28571,-4.7619 0,-3.96826 1.58731,-4.76191 9.52381,-4.76191 7.9365,0 9.52381,-0.79365 9.52381,-4.7619 0,-3.96826 1.58731,-4.76191 9.52381,-4.76191 9.52381,0 9.52381,0 9.52381,9.52381 0,7.93651 -0.79364,9.52381 -4.7619,9.52381 -4.36508,0 -4.76191,1.5873 -4.76191,19.04762 0,17.46031 0.39683,19.04762 4.76191,19.04762 3.17459,0 4.7619,1.58731 4.7619,4.76191 0,3.17459 1.58731,4.7619 4.76191,4.7619 3.17459,0 4.7619,1.58731 4.7619,4.76191 0,4.2328 -1.58731,4.7619 -14.28571,4.7619 -12.69841,0 -14.28572,-0.5291 -14.28572,-4.7619 0,-4.44446 -1.58731,-4.76191 -23.80952,-4.76191 -22.22222,0 -23.80953,0.31745 -23.80953,4.76191 0,3.17459 -1.58731,4.7619 -4.7619,4.7619 -3.96826,0 -4.76191,1.58731 -4.76191,9.52381 0,9.52381 0,9.52381 -9.52381,9.52381 -7.9365,0 -9.52381,-0.79364 -9.52381,-4.76191 0,-4.36507 -1.58731,-4.7619 -19.04762,-4.7619 -17.46031,0 -19.04762,0.39683 -19.04762,4.7619 0,3.96827 -1.58731,4.76191 -9.52381,4.76191 -9.52381,0 -9.52381,0 -9.52381,9.52381 0,7.9365 -0.79365,9.52381 -4.7619,9.52381 -3.1746,0 -4.7619,1.58731 -4.7619,4.7619 0,3.96827 -1.58731,4.76191 -9.52381,4.76191 -7.93651,0 -9.52381,0.79364 -9.52381,4.7619 0,3.1746 -1.58731,4.76191 -4.76191,4.76191 -3.1746,0 -4.7619,1.58731 -4.7619,4.7619 0,3.1746 -1.58731,4.76191 -4.76191,4.76191 -3.1746,0 -4.7619,1.58731 -4.7619,4.7619 0,3.1746 -1.58731,4.76191 -4.76191,4.76191 -3.1746,0 -4.7619,1.58731 -4.7619,4.7619 0,3.1746 -1.58731,4.76191 -4.76191,4.76191 -3.1746,0 -4.7619,1.58731 -4.7619,4.7619 0,3.1746 -1.58731,4.76191 -4.76191,4.76191 -3.1746,0 -4.7619,1.58731 -4.7619,4.7619 0,3.1746 -1.58731,4.76191 -4.76191,4.76191 -3.96825,0 -4.7619,1.58731 -4.7619,9.52381 0,7.9365 0.79365,9.52381 4.7619,9.52381 3.1746,0 4.76191,1.5873 4.76191,4.7619 0,3.96826 1.5873,4.7619 9.52381,4.7619 7.9365,0 9.52381,0.79365 9.52381,4.76191 0,4.44445 1.5873,4.7619 23.80952,4.7619 22.22222,0 23.80953,0.31746 23.80953,4.76191 0,4.44445 1.5873,4.7619 23.80952,4.7619 22.22221,0 23.80952,-0.31745 23.80952,-4.7619 z M 110.44189,349.08192 c 0,-3.17459 1.5873,-4.7619 4.7619,-4.7619 3.17461,0 4.76191,-1.58731 4.76191,-4.76191 0,-3.17459 1.5873,-4.7619 4.7619,-4.7619 3.17461,0 4.76191,-1.58731 4.76191,-4.76191 0,-3.17459 1.5873,-4.7619 4.7619,-4.7619 3.17461,0 4.76191,-1.58731 4.76191,-4.76191 0,-3.17459 1.5873,-4.7619 4.7619,-4.7619 3.17461,0 4.76191,-1.58731 4.76191,-4.76191 0,-3.17459 1.5873,-4.7619 4.7619,-4.7619 3.1746,0 4.76191,-1.58731 4.76191,-4.76191 0,-3.17459 1.5873,-4.7619 4.7619,-4.7619 3.1746,0 4.76191,-1.58731 4.76191,-4.76191 0,-3.17459 -1.58731,-4.7619 -4.76191,-4.7619 -3.1746,0 -4.7619,-1.58731 -4.7619,-4.7619 0,-3.1746 1.5873,-4.76191 4.7619,-4.76191 4.36508,0 4.76191,-1.58731 4.76191,-19.04762 0,-17.46032 -0.39683,-19.04762 -4.76191,-19.04762 -4.2328,0 -4.7619,1.5873 -4.7619,14.28572 0,12.6984 -0.5291,14.28571 -4.76191,14.28571 -3.1746,0 -4.7619,1.58731 -4.7619,4.76191 0,3.96826 -1.5873,4.7619 -9.52381,4.7619 -7.93651,0 -9.52381,-0.79364 -9.52381,-4.7619 0,-3.96827 -1.5873,-4.76191 -9.52381,-4.76191 -7.93651,0 -9.52381,-0.79364 -9.52381,-4.7619 0,-3.1746 -1.5873,-4.76191 -4.76191,-4.76191 -3.96825,0 -4.7619,-1.58731 -4.7619,-9.52381 0,-7.93651 0.79365,-9.52381 4.7619,-9.52381 3.17461,0 4.76191,-1.5873 4.76191,-4.7619 0,-3.17461 1.5873,-4.76191 4.7619,-4.76191 3.17461,0 4.76191,-1.5873 4.76191,-4.7619 0,-3.96826 1.5873,-4.76191 9.52381,-4.76191 7.93651,0 9.52381,-0.79365 9.52381,-4.7619 0,-3.96826 1.5873,-4.76191 9.52381,-4.76191 7.9365,0 9.52381,-0.79365 9.52381,-4.7619 0,-3.96826 1.5873,-4.76191 9.52381,-4.76191 7.9365,0 9.52381,-0.79365 9.52381,-4.7619 0,-3.96826 1.5873,-4.76191 9.52381,-4.76191 7.9365,0 9.52381,-0.79365 9.52381,-4.7619 0,-3.1746 1.5873,-4.76191 4.7619,-4.76191 3.1746,0 4.76191,-1.5873 4.76191,-4.7619 0,-3.96826 1.5873,-4.76191 9.52381,-4.76191 7.9365,0 9.52381,-0.79365 9.52381,-4.7619 0,-3.1746 1.5873,-4.76191 4.7619,-4.76191 3.1746,0 4.7619,1.58731 4.7619,4.76191 0,3.96825 1.58731,4.7619 9.52381,4.7619 7.9365,0 9.52381,0.79365 9.52381,4.76191 0,3.1746 1.58731,4.7619 4.76191,4.7619 3.17459,0 4.7619,1.58731 4.7619,4.76191 0,3.1746 1.58731,4.7619 4.76191,4.7619 3.17459,0 4.7619,-1.5873 4.7619,-4.7619 0,-3.1746 1.58731,-4.76191 4.76191,-4.76191 3.17459,0 4.7619,-1.5873 4.7619,-4.7619 0,-3.1746 1.58731,-4.76191 4.76191,-4.76191 3.17459,0 4.7619,-1.5873 4.7619,-4.7619 0,-3.1746 1.58731,-4.76191 4.76191,-4.76191 3.17459,0 4.7619,-1.5873 4.7619,-4.7619 0,-3.1746 1.58731,-4.7619 4.76191,-4.7619 3.17459,0 4.7619,-1.58731 4.7619,-4.76191 0,-3.1746 1.58731,-4.7619 4.76191,-4.7619 3.17459,0 4.7619,-1.58731 4.7619,-4.76191 0,-3.1746 1.58731,-4.7619 4.76191,-4.7619 3.17459,0 4.7619,-1.58731 4.7619,-4.76191 0,-3.1746 1.58731,-4.7619 4.76191,-4.7619 3.17459,0 4.7619,-1.58731 4.7619,-4.76191 0,-3.1746 1.58731,-4.7619 4.76191,-4.7619 3.17459,0 4.7619,-1.58731 4.7619,-4.76191 0,-3.1746 1.58731,-4.7619 4.76191,-4.7619 3.17459,0 4.7619,-1.58731 4.7619,-4.76192 0,-3.174596 -1.58731,-4.761896 -4.7619,-4.761896 -3.1746,0 -4.76191,-1.5873 -4.76191,-4.761907 0,-3.174603 -1.58731,-4.761905 -4.7619,-4.761905 -3.1746,0 -4.76191,-1.587302 -4.76191,-4.761905 0,-3.968255 -1.58731,-4.761905 -9.52381,-4.761905 -7.9365,0 -9.52381,-0.79365 -9.52381,-4.761904 0,-4.365079 -1.58731,-4.761905 -19.04762,-4.761905 -17.46031,0 -19.04762,-0.396826 -19.04762,-4.761905 0,-4.535148 -1.58731,-4.761905 -33.33333,-4.761905 -31.74603,0 -33.33333,0.226762 -33.33333,4.761905 0,4.365079 -1.58731,4.761905 -19.04762,4.761905 -17.46032,0 -19.04762,0.396826 -19.04762,4.761905 0,3.968254 -1.58731,4.761904 -9.52381,4.761904 -7.93651,0 -9.52381,0.79365 -9.52381,4.761905 0,3.968255 -1.58731,4.761905 -9.52381,4.761905 -7.93651,0 -9.52381,0.79365 -9.52381,4.761905 0,3.174607 -1.5873,4.761907 -4.76191,4.761907 -3.1746,0 -4.7619,1.5873 -4.7619,4.761896 0,3.17461 -1.5873,4.76192 -4.76191,4.76192 -3.1746,0 -4.7619,1.5873 -4.7619,4.7619 0,3.1746 -1.5873,4.76191 -4.76191,4.76191 -3.1746,0 -4.7619,1.5873 -4.7619,4.7619 0,3.1746 -1.5873,4.76191 -4.76191,4.76191 -3.96825,0 -4.7619,1.5873 -4.7619,9.52381 0,7.9365 -0.79365,9.52381 -4.761907,9.52381 -3.1746,0 -4.7619,1.5873 -4.7619,4.7619 0,3.1746 -1.58731,4.76191 -4.76191,4.76191 -3.96825,0 -4.7619,1.5873 -4.7619,9.5238 0,7.93651 -0.79365,9.52381 -4.76191,9.52381 -4.36508,0 -4.7619,1.58731 -4.7619,19.04762 0,17.46032 -0.39683,19.04762 -4.76191,19.04762 -4.56349,0 -4.7619,1.58731 -4.7619,38.09524 0,36.50793 0.1984,38.09524 4.7619,38.09524 4.23281,0 4.76191,1.58731 4.76191,14.28571 0,12.69841 0.5291,14.28572 4.7619,14.28572 3.96826,0 4.76191,1.58731 4.76191,9.52381 0,7.9365 0.79365,9.52381 4.7619,9.52381 3.1746,0 4.76191,1.58731 4.76191,4.7619 0,3.1746 1.5873,4.76191 4.7619,4.76191 3.17461,0 4.761907,1.58731 4.761907,4.7619 0,3.1746 1.5873,4.76191 4.7619,4.76191 3.17461,0 4.76191,-1.58731 4.76191,-4.76191 z m 28.57143,-104.7619 c 0,-3.96826 -1.5873,-4.76191 -9.52381,-4.76191 -7.93651,0 -9.52381,0.79365 -9.52381,4.76191 0,3.96826 1.5873,4.7619 9.52381,4.7619 7.93651,0 9.52381,-0.79364 9.52381,-4.7619 z"
     id="path3351"
     inkscape:connector-curvature="0" />
</svg>
