
<svg
   xmlns="http://www.w3.org/2000/svg"
   xmlns:sodipodi="http://sodipodi.sourceforge.net/DTD/sodipodi-0.dtd"
   xmlns:inkscape="http://www.inkscape.org/namespaces/inkscape"
   id="svg2"
   version="1.1"
   inkscape:version="0.91 r13725"
   width="79.6875"
   height="78.75"
   viewBox="0 0 79.6875 78.75"
   sodipodi:docname="provereno.svg">
  <metadata
     id="metadata8">
    <rdf:RDF>
      <cc:Work
         rdf:about="">
        <dc:format>image/svg+xml</dc:format>
        <dc:type
           rdf:resource="http://purl.org/dc/dcmitype/StillImage" />
        <dc:title></dc:title>
      </cc:Work>
    </rdf:RDF>
  </metadata>
  <defs
     id="defs6" />
  <sodipodi:namedview
     pagecolor="#ffffff"
     bordercolor="#666666"
     borderopacity="1"
     objecttolerance="10"
     gridtolerance="10"
     guidetolerance="10"
     inkscape:pageopacity="0"
     inkscape:pageshadow="2"
     inkscape:window-width="640"
     inkscape:window-height="480"
     id="namedview4"
     showgrid="false"
     inkscape:zoom="2.9968254"
     inkscape:cx="39.84375"
     inkscape:cy="39.375"
     inkscape:window-x="0"
     inkscape:window-y="0"
     inkscape:window-maximized="0"
     inkscape:current-layer="svg2" />
  <path
     style="fill:#151515"
     d="m 2.1932203e-7,39.392947 0,-39.35705498 L 39.843751,0.12591612 l 39.84375,0.0900241 0,39.26703078 0,39.26703 -39.84375,0 -39.84375078067797,0 0,-39.357054 z M 59.501177,74.665611 c 9.76406,-4.470134 16.441821,-13.029584 18.390911,-23.573177 1.04932,-5.676299 0.252227,-11.552259 -2.441735,-17.999817 -1.252255,-2.997068 -1.613786,-3.268469 -2.788749,-2.093505 -1.171103,1.171104 -1.173183,1.846485 -0.01568,5.097305 0.733857,2.061034 1.352802,6.934032 1.375434,10.828886 0.03357,5.777331 -0.402114,7.971067 -2.365646,11.911363 -8.079775,16.213989 -29.906146,20.266197 -43.470588,8.070598 -6.37967,-5.735872 -8.689944,-10.409603 -9.207033,-18.626013 -0.762613,-12.117723 4.609825,-21.555157 15.2536,-26.79507 5.636611,-2.774894 6.559273,-2.946195 13.817025,-2.565261 5.828268,0.305907 8.735426,0.946811 11.601512,2.557642 2.103436,1.182197 4.60595,1.998942 5.561143,1.814989 1.51538,-0.291836 1.353707,-0.72627 -1.268577,-3.408829 -1.652909,-1.690902 -3.005289,-2.852301 -3.005289,-2.580885 0,0.271415 -1.623393,-0.15607 -3.607539,-0.949969 -3.34327,-1.337711 -17.956319,-2.427902 -17.955378,-1.339541 2.29e-4,0.265691 -2.042427,1.20863 -4.539237,2.095417 -9.587873,3.405312 -18.022492,14.464004 -19.391973,25.424965 -1.858233,14.872794 9.004967,30.622128 23.666785,34.311816 5.462872,1.374747 14.807525,0.375293 20.391018,-2.180914 z m -4.902689,-20.75936 c 4.895879,-7.734375 10.913493,-17.578169 13.372475,-21.875098 2.458983,-4.296929 5.044041,-8.032541 5.744573,-8.301361 0.700533,-0.268819 1.0603,-0.834044 0.799483,-1.256054 -0.260817,-0.422011 0.454661,-2.381711 1.589951,-4.35489 1.313259,-2.282495 -4.127186,2.662419 -14.955243,13.593077 L 44.13032,48.892599 35.46809,43.69962 c -4.764226,-2.856138 -8.810159,-5.045048 -8.990962,-4.864246 -0.180802,0.180803 3.348457,6.176964 7.8428,13.324805 7.728163,12.290935 10.727358,16.596604 11.17902,16.048695 0.108867,-0.132068 4.203661,-6.568248 9.09954,-14.302623 z m -44.383569,6.012224 c 2.11617,-0.63402 3.847582,-1.437548 3.847582,-1.785619 0,-1.536091 -1.364264,-1.649111 -4.8901287,-0.405114 -4.385246,1.547205 -5.203085,1.652392 -3.969247,0.510511 0.489843,-0.453336 2.511495,-1.342621 4.4925603,-1.97619 2.2239854,-0.711257 3.2679484,-1.485929 2.7288974,-2.02498 -1.098973,-1.098973 -9.6172757,1.067797 -9.5992817,2.441735 0.03493,2.667051 1.29326,5.255357 2.356575,4.847324 0.652003,-0.250197 2.916872,-0.973647 5.0330427,-1.607667 z m 0.489657,-7.987526 c 2.09475,-0.803832 1.843156,-2.243448 -0.392075,-2.243448 -1.0312507,0 -1.8750007,-0.597656 -1.8750007,-1.328125 0,-1.624265 -1.57062,-2.220051 -4.417742,-1.675789 -1.644001,0.31427 -2.144758,1.04114 -2.144758,3.113205 0,2.51934 0.249855,2.703209 3.673324,2.703209 2.020328,0 4.3406413,-0.256074 5.1562517,-0.569052 z M 3.7500003,49.658077 c 0,-0.499441 0.632812,-0.908076 1.40625,-0.908076 0.773437,0 1.40625,0.165801 1.40625,0.368448 0,0.202646 -0.632813,0.611281 -1.40625,0.908076 -0.773438,0.296797 -1.40625,0.130995 -1.40625,-0.368448 z m 7.9687507,-8.38213 c 0,-2.006803 -0.55235,-2.412097 -4.1165037,-3.020544 -4.834914,-0.825383 -5.727247,-0.447567 -5.727247,2.424926 0,3.045927 0.801613,3.503515 5.590095,3.191018 3.8246807,-0.249601 4.2536557,-0.511343 4.2536557,-2.5954 z m -6.5625007,-0.02595 c -1.580515,-0.67917 -1.405151,-0.816064 1.116546,-0.871608 1.645351,-0.03624 3.25228,0.355983 3.5709543,0.871608 0.6949194,1.124403 -2.0708743,1.124403 -4.6875003,0 z M 13.55958,34.958628 c 0.691792,-2.756323 -1.422286,-5.240267 -3.7121254,-4.361574 -0.6711633,0.25755 -1.4988053,0.01763 -1.8392043,-0.53314 -1.083364,-1.75292 -2.983153,-1.081811 -4.142868,1.463486 -1.324633,2.907253 -1.629177,2.541597 3.634618,4.36399 5.5817457,1.932471 5.3307547,1.971107 6.0595797,-0.932762 z M 9.8437506,33.750001 c -0.3186743,-0.515625 -0.157532,-0.9375 0.3580934,-0.9375 0.515625,0 1.198233,0.421875 1.516907,0.9375 0.318674,0.515625 0.157532,0.9375 -0.358093,0.9375 -0.515625,0 -1.198233,-0.421875 -1.5169074,-0.9375 z m 7.0787284,-5.713714 c 0.937327,-1.751412 0.840445,-1.896903 -0.896126,-1.345737 -2.675688,0.849231 -4.248943,-0.223052 -2.832084,-1.930263 0.868331,-1.046273 0.77986,-1.322786 -0.423226,-1.322786 -0.836573,0 -1.521042,0.446773 -1.521042,0.992828 0,0.546056 -0.423016,0.731391 -0.940035,0.411855 -0.6154674,-0.380379 -0.5650234,-1.281692 0.146098,-2.610433 1.056613,-1.9743 1.024831,-1.988819 -1.1693407,-0.534217 -3.351759,2.222013 -3.145063,3.847708 0.7821337,6.151592 4.439363,2.604347 5.543841,2.63451 6.853622,0.187161 z m 2.296272,-3.661286 c 0.318674,-0.515625 0.25112,-1.464844 -0.150121,-2.109375 -0.401241,-0.644531 -0.617592,-2.039379 -0.480782,-3.09966 0.163506,-1.267169 -0.580392,-2.371526 -2.170815,-3.222695 -2.176392,-1.164769 -2.614995,-1.099474 -4.364171,0.649703 l -1.944612,1.944611 3.61775,3.362092 c 3.885464,3.610886 4.593683,3.930046 5.492751,2.475324 z m 8.783196,-7.326955 c 1.940031,-1.533454 2.080187,-2.040395 1.108955,-4.011047 l -1.111742,-2.255748 1.809282,2.244206 c 0.995104,1.234315 2.284848,1.950291 2.866096,1.59106 1.135496,-0.701775 -2.961954,-9.9290169 -4.40908,-9.9290169 -1.540636,0 -1.926543,1.2316879 -0.993254,3.1701402 0.873687,1.8146613 0.841687,1.8444853 -0.370712,0.3454848 -1.749931,-2.1635995 -3.131334,-2.0764591 -3.735969,0.2356686 -0.269864,1.0319615 -0.177651,1.6828433 0.204919,1.4464019 0.382569,-0.2364404 1.373949,0.9926624 2.203066,2.7313404 1.34705,2.824793 1.354488,3.219943 0.06989,3.71289 -2.048699,0.78616 -3.455175,-0.292885 -2.259551,-1.733522 1.21988,-1.469867 0.335192,-2.457592 -1.552436,-1.733241 -1.122172,0.430616 -1.278029,0.08988 -0.737661,-1.612662 0.565116,-1.7805238 0.40642,-2.0516868 -0.905989,-1.5480684 -0.875112,0.3358134 -1.978484,0.6105684 -2.451936,0.6105684 -1.63328,0 -0.851944,2.455197 2.02728,6.370332 3.082425,4.191448 3.381358,4.2047 8.238841,0.365213 z m 8.634567,-5.56367 c 0.04421,-0.980098 0.264391,-1.16882 0.546875,-0.46875 0.478317,1.185393 3.129112,1.674632 3.129112,0.577519 0,-1.244805 -2.220407,-8.3462803 -2.834938,-9.0669157 -1.034416,-1.2130169 -5.602562,0.3522927 -5.602562,1.91976 0,0.7866232 0.488652,3.0612011 1.085895,5.0546169 1.100764,3.6740248 3.539976,4.9904928 3.675618,1.9837698 z m -1.875,-6.250001 c -0.04071,-0.9882811 0.18087,-1.5419921 0.492393,-1.2304687 0.311523,0.3115235 0.34483,1.1201172 0.07402,1.796875 -0.299274,0.7478744 -0.521421,0.5257278 -0.566406,-0.5664063 z m 11.237619,5.982641 c 1.859177,-0.995001 2.314889,-4.0927012 1.209331,-8.2204041 -0.471228,-1.7593715 -1.120441,-2.10688354 -3.502824,-1.875 -2.897586,0.2820294 -2.92134,0.3276003 -2.591742,4.9721382 0.182956,2.578125 0.815769,4.9974469 1.40625,5.3762699 1.381084,0.886034 1.345891,0.888593 3.478985,-0.253004 z M 44.210527,7.5000001 c 0,-1.2890625 0.212788,-1.8164063 0.472862,-1.171875 0.260074,0.6445312 0.260074,1.6992187 0,2.34375 -0.260074,0.6445312 -0.472862,0.1171875 -0.472862,-1.171875 z m 16.726974,2.4585425 c 0,-0.194677 -0.738281,-0.9329588 -1.640625,-1.6406256 -1.486928,-1.1661287 -1.520087,-1.132969 -0.353958,0.3539581 1.224721,1.5616399 1.994583,2.0582619 1.994583,1.2866675 z M 9.4913323,5.375 C 8.5654423,4.4559995 8.4577583,4.5636841 8.9665243,5.8998077 9.3185853,6.8243893 9.8427986,7.3447018 10.131443,7.0560576 10.420087,6.7674135 10.132038,6.0109376 9.4913323,5.375 Z"
     id="path3338"
     inkscape:connector-curvature="0" />
</svg>
