<?xml version="1.0" encoding="UTF-8" standalone="no"?>
<!-- Created with Inkscape (http://www.inkscape.org/) -->

<svg
   
   xmlns="http://www.w3.org/2000/svg"
   
   id="svg2"
   version="1.1"
   inkscape:version="0.91 r13725"
   width="25"
   height="25"
   viewBox="0 0 59.523811 59.523811"
   sodipodi:docname="ключ.svg">
  <metadata
     id="metadata8">
    <rdf:RDF>
      <cc:Work
         rdf:about="">
        <dc:format>image/svg+xml</dc:format>
        <dc:type
           rdf:resource="http://purl.org/dc/dcmitype/StillImage" />
        <dc:title></dc:title>
      </cc:Work>
    </rdf:RDF>
  </metadata>
  <defs
     id="defs6" />
  <sodipodi:namedview
     pagecolor="#ffffff"
     bordercolor="#666666"
     borderopacity="1"
     objecttolerance="10"
     gridtolerance="10"
     guidetolerance="10"
     inkscape:pageopacity="0"
     inkscape:pageshadow="2"
     inkscape:window-width="640"
     inkscape:window-height="480"
     id="namedview4"
     showgrid="false"
     inkscape:zoom="3.9647999"
     inkscape:cx="29.761906"
     inkscape:cy="29.761906"
     inkscape:window-x="0"
     inkscape:window-y="0"
     inkscape:window-maximized="0"
     inkscape:current-layer="svg2" />
  <path
     style="fill:#1d1d1d"
     d="M 15.989614,55.280881 C 15.005175,53.688026 11.838167,53.110066 8.5780233,53.928309 -0.1498927,56.118876 1.7261663,51.779583 14.790154,39.559752 24.933616,30.07173 26.694916,27.117999 26.694916,19.595263 26.694916,3.3252889 43.010302,-3.1755874 52.75429,9.2118872 61.395448,20.197339 54.089138,32.581133 39.232188,32.131106 28.503354,31.806125 21.913322,36.819616 23.764481,43.898457 c 1.035587,3.960095 0.474945,4.7059 -2.639233,3.510876 -2.174778,-0.83454 -3.954142,-0.568831 -3.954142,0.590467 0,1.159297 1.339286,2.598885 2.976191,3.199085 2.230655,0.817908 2.297973,1.81422 0.268732,3.977298 -2.051043,2.186322 -3.124213,2.211705 -4.426415,0.104691 z M 47.647297,23.837773 C 51.9327,19.55237 51.091457,12.890904 45.915016,10.120558 40.099685,7.0082876 34.445757,9.123706 32.541223,15.124365 c -2.823145,8.89494 8.432257,15.387225 15.106074,8.713408 z"
     id="path3338"
     inkscape:connector-curvature="0" />
</svg>
